{
  "accessors": [
    {
      "bufferView": 2,
      "componentType": 5126,
      "count": 3249,
      "max": [
        73.38910675048828,
        38.17227554321289,
        97.50130462646484
      ],
      "min": [
        -73.19620513916016,
        -41.13349151611328,
        -5.315284729003906
      ],
      "type": "VEC3"
    },
    {
      "bufferView": 2,
      "byteOffset": 38988,
      "componentType": 5126,
      "count": 3249,
      "max": [
        1.0,
        1.0,
        1.0
      ],
      "min": [
        -1.0,
        -1.0,
        -1.0
      ],
      "type": "VEC3"
    },
    {
      "bufferView": 3,
      "componentType": 5126,
      "count": 3249,
      "max": [
        1.0,
        1.0,
        1.0,
        1.0
      ],
      "min": [
        -1.0,
        -1.0,
        -1.0,
        -1.0
      ],
      "type": "VEC4"
    },
    {
      "bufferView": 1,
      "componentType": 5126,
      "count": 3249,
      "max": [
        0.9877016544342041,
        0.9995023012161255
      ],
      "min": [
        0.0002325677196495235,
        0.00019993510795757174
      ],
      "type": "VEC2"
    },
    {
      "bufferView": 0,
      "componentType": 5125,
      "count": 9864,
      "type": "SCALAR"
    }
  ],
  "asset": {
    "extras": {
      "author": "jmarcos28 (https://sketchfab.com/jmarcos28)",
      "license": "CC-BY-4.0 (http://creativecommons.org/licenses/by/4.0/)",
      "source": "https://sketchfab.com/3d-models/dumpster-f80a2a0af6924562be10be7354b7a72f",
      "title": "Dumpster"
    },
    "generator": "Sketchfab-12.66.0",
    "version": "2.0"
  },
  "bufferViews": [
    {
      "buffer": 0,
      "byteLength": 39456,
      "name": "floatBufferViews",
      "target": 34963
    },
    {
      "buffer": 0,
      "byteLength": 25992,
      "byteOffset": 39456,
      "byteStride": 8,
      "name": "floatBufferViews",
      "target": 34962
    },
    {
      "buffer": 0,
      "byteLength": 77976,
      "byteOffset": 65448,
      "byteStride": 12,
      "name": "floatBufferViews",
      "target": 34962
    },
    {
      "buffer": 0,
      "byteLength": 51984,
      "byteOffset": 143424,
      "byteStride": 16,
      "name": "floatBufferViews",
      "target": 34962
    }
  ],
  "buffers": [
    {
      "byteLength": 195408,
      "uri": "scene.bin"
    }
  ],
  "images": [
    {
      "uri": "textures/M_Dumpster_baseColor.png"
    },
    {
      "uri": "textures/M_Dumpster_metallicRoughness.png"
    },
    {
      "uri": "textures/M_Dumpster_normal.png"
    }
  ],
  "materials": [
    {
      "doubleSided": true,
      "name": "M_Dumpster",
      "normalTexture": {
        "index": 2
      },
      "occlusionTexture": {
        "index": 1
      },
      "pbrMetallicRoughness": {
        "baseColorTexture": {
          "index": 0
        },
        "metallicRoughnessTexture": {
          "index": 1
        }
      }
    }
  ],
  "meshes": [
    {
      "name": "Dumpster_low_M_Dumpster_0",
      "primitives": [
        {
          "attributes": {
            "NORMAL": 1,
            "POSITION": 0,
            "TANGENT": 2,
            "TEXCOORD_0": 3
          },
          "indices": 4,
          "material": 0,
          "mode": 4
        }
      ]
    }
  ],
  "nodes": [
    {
      "children": [
        1
      ],
      "matrix": [
        0.009523809887468815,
        0.0,
        0.0,
        0.0,
        0.0,
        2.11471060384412e-18,
        -0.009523809887468815,
        0.0,
        0.0,
        0.009523809887468815,
        2.11471060384412e-18,
        0.0,
        0.0,
        0.0,
        0.0,
        1.0
      ],
      "name": "Sketchfab_model"
    },
    {
      "children": [
        2
      ],
      "matrix": [
        1.0,
        0.0,
        0.0,
        0.0,
        0.0,
        0.0,
        1.0,
        0.0,
        0.0,
        -1.0,
        0.0,
        0.0,
        0.0,
        0.0,
        0.0,
        1.0
      ],
      "name": "SM_Dumpster.FBX"
    },
    {
      "children": [
        3
      ],
      "name": "RootNode"
    },
    {
      "children": [
        4
      ],
      "matrix": [
        1.429999828338623,
        0.0,
        0.0,
        0.0,
        0.0,
        3.1752374692631214e-16,
        -1.429999828338623,
        0.0,
        0.0,
        1.429999828338623,
        3.1752374692631214e-16,
        0.0,
        0.0,
        0.0,
        0.0,
        1.0
      ],
      "name": "Dumpster_low"
    },
    {
      "children": [
        5
      ],
      "matrix": [
        1.0,
        0.0,
        -0.0,
        0.0,
        0.0,
        1.0,
        0.0,
        0.0,
        0.0,
        0.0,
        1.0,
        0.0,
        0.0,
        -5.3697121416007576e-08,
        3.637272357940674,
        1.0
      ],
      "name": "Object_4"
    },
    {
      "mesh": 0,
      "name": "Dumpster_low_M_Dumpster_0"
    }
  ],
  "samplers": [
    {
      "magFilter": 9729,
      "minFilter": 9987,
      "wrapS": 10497,
      "wrapT": 10497
    }
  ],
  "scene": 0,
  "scenes": [
    {
      "name": "Sketchfab_Scene",
      "nodes": [
        0
      ]
    }
  ],
  "textures": [
    {
      "sampler": 0,
      "source": 0
    },
    {
      "sampler": 0,
      "source": 1
    },
    {
      "sampler": 0,
      "source": 2
    }
  ]
}
