{
  "accessors": [
    {
      "bufferView": 2,
      "componentType": 5126,
      "count": 4757,
      "max": [
        1.0,
        2.6421000957489014,
        24.035749435424805
      ],
      "min": [
        -1.0,
        -3.433619976043701,
        -1.5934900045394897
      ],
      "type": "VEC3"
    },
    {
      "bufferView": 2,
      "byteOffset": 57084,
      "componentType": 5126,
      "count": 4757,
      "max": [
        1.0,
        1.0,
        1.0
      ],
      "min": [
        -1.0,
        -1.0,
        -1.0
      ],
      "type": "VEC3"
    },
    {
      "bufferView": 3,
      "componentType": 5126,
      "count": 4757,
      "max": [
        1.0,
        1.0,
        1.0,
        1.0
      ],
      "min": [
        -1.0,
        -1.0,
        -1.0,
        -1.0
      ],
      "type": "VEC4"
    },
    {
      "bufferView": 1,
      "componentType": 5126,
      "count": 4757,
      "max": [
        0.9954699873924255,
        0.9951199889183044
      ],
      "min": [
        0.00215999991632998,
        0.0022100000642240047
      ],
      "type": "VEC2"
    },
    {
      "bufferView": 0,
      "componentType": 5125,
      "count": 12528,
      "type": "SCALAR"
    }
  ],
  "asset": {
    "extras": {
      "author": "Machine Meza (https://sketchfab.com/maurib98)",
      "license": "CC-BY-4.0 (http://creativecommons.org/licenses/by/4.0/)",
      "source": "https://sketchfab.com/3d-models/oil-pump-jack-73e9e419df5748ceb1bbbd333c5ce8d1",
      "title": "Oil Pump Jack"
    },
    "generator": "Sketchfab-14.63.0",
    "version": "2.0"
  },
  "bufferViews": [
    {
      "buffer": 0,
      "byteLength": 50112,
      "name": "floatBufferViews",
      "target": 34963
    },
    {
      "buffer": 0,
      "byteLength": 38056,
      "byteOffset": 50112,
      "byteStride": 8,
      "name": "floatBufferViews",
      "target": 34962
    },
    {
      "buffer": 0,
      "byteLength": 114168,
      "byteOffset": 88168,
      "byteStride": 12,
      "name": "floatBufferViews",
      "target": 34962
    },
    {
      "buffer": 0,
      "byteLength": 76112,
      "byteOffset": 202336,
      "byteStride": 16,
      "name": "floatBufferViews",
      "target": 34962
    }
  ],
  "buffers": [
    {
      "byteLength": 278448,
      "uri": "scene.bin"
    }
  ],
  "extensionsUsed": [
    "KHR_materials_specular"
  ],
  "images": [
    {
      "uri": "textures/Oil_Pump_baseColor.png"
    },
    {
      "uri": "textures/Oil_Pump_normal.png"
    }
  ],
  "materials": [
    {
      "doubleSided": true,
      "extensions": {
        "KHR_materials_specular": {
          "specularColorFactor": [
            1.0,
            1.0,
            1.0
          ],
          "specularFactor": 1.0
        }
      },
      "name": "Oil_Pump",
      "normalTexture": {
        "index": 1
      },
      "pbrMetallicRoughness": {
        "baseColorTexture": {
          "index": 0
        },
        "metallicFactor": 0.396921304318747,
        "roughnessFactor": 0.536765287075376
      }
    }
  ],
  "meshes": [
    {
      "name": "Oil Pump_0",
      "primitives": [
        {
          "attributes": {
            "NORMAL": 1,
            "POSITION": 0,
            "TANGENT": 2,
            "TEXCOORD_0": 3
          },
          "indices": 4,
          "material": 0,
          "mode": 4
        }
      ]
    }
  ],
  "nodes": [
    {
      "children": [
        1
      ],
      "matrix": [
        0.9377337098121643,
        0.0,
        0.0,
        0.0,
        0.0,
        2.0821871112012598e-16,
        -0.9377337098121643,
        0.0,
        0.0,
        0.9377337098121643,
        2.0821871112012598e-16,
        0.0,
        0.0,
        0.0,
        0.0,
        1.0
      ],
      "name": "Sketchfab_model"
    },
    {
      "children": [
        2
      ],
      "name": "Root"
    },
    {
      "children": [
        3
      ],
      "matrix": [
        0.0,
        -0.7068800000000001,
        0.0,
        0.0,
        0.77807,
        0.0,
        0.0,
        0.0,
        0.0,
        0.0,
        0.19712000000000002,
        0.0,
        2.57103,
        -1.1355199999999999,
        1.15361,
        1.0
      ],
      "name": "Oil Pump"
    },
    {
      "mesh": 0,
      "name": "Oil Pump_0"
    }
  ],
  "samplers": [
    {
      "magFilter": 9729,
      "minFilter": 9987,
      "wrapS": 10497,
      "wrapT": 10497
    }
  ],
  "scene": 0,
  "scenes": [
    {
      "name": "Sketchfab_Scene",
      "nodes": [
        0
      ]
    }
  ],
  "textures": [
    {
      "sampler": 0,
      "source": 0
    },
    {
      "sampler": 0,
      "source": 1
    }
  ]
}
