<svg width="1198" height="372" viewBox="0 0 1198 372" fill="none" xmlns="http://www.w3.org/2000/svg">
<path d="M405.992 153.958C394.799 246.454 197.511 306.048 123.039 197.676C72.137 123.603 175.92 48.9879 273.141 90.3609C335.748 117.004 333.942 185.421 225.155 178.661C221.918 178.46 220.675 177.49 220.679 174.035C220.696 161.748 220.576 162.017 232.868 161.681C256.514 161.035 278.756 158.67 288.897 137.316C293.758 127.079 257.081 110.422 239.824 107.69C173.265 97.1529 118.95 137.759 142.733 179.012C167.452 221.888 241.928 228.237 292.899 216.077C414.06 187.171 404.497 74.6049 287.793 40.4109C141.588 -2.42708 -11.533 92.3969 38.767 215.072C71.274 294.351 183.405 373.84 383.562 312.52C390.621 310.357 383.209 311.026 379.96 300.854C359.428 236.58 420.058 186.531 464.45 169.929C472.067 167.08 472.139 172.981 481.792 157.917C520.265 97.8809 618.523 68.3689 713.521 106.698C715.658 107.56 717.191 107.16 719.107 106.023C1109.26 -125.426 1322.51 216.711 1118.32 335.02C1044.06 378.043 943.418 360.222 864.863 324.131C829.661 307.958 825.578 303.929 819.226 309.358C704.394 407.514 562.683 359.199 561.683 359.53C523.705 372.082 448.511 369.032 409.113 339.829C405.063 336.827 389.307 346.14 339.044 357.063C321.796 360.811 235.388 367.778 163.581 349.071C67.916 324.149 -2.998 253.327 0.958001 157.988C4.342 76.4299 103.182 6.52492 193.112 1.37492C304.402 -4.99808 419.241 44.4709 405.992 153.958ZM763.794 130.024C763.794 130.024 798.716 146.3 816.019 158.946C818.942 161.083 820.175 157.286 847.717 144.492C963.766 90.5829 1071.32 132.421 1090.89 194.643C1110.09 255.718 1020.74 298.874 929.313 250.56C924.189 247.852 929.061 250.212 854.151 289.926C1080.65 404.317 1195.67 268.335 1165.22 181.414C1119.35 50.4899 969.895 39.5129 839.448 91.9739C813.265 102.504 790.96 120.925 763.794 130.024ZM855.253 183.097C871.459 188.481 910.946 217.658 915.925 215.642C989.562 185.814 1039.55 200.155 1034.25 210.696C1021.42 236.185 1036.97 205.341 958.819 234.459C958.277 234.661 957.914 235.343 957.468 235.801C959.187 237.01 991.881 248.271 1013.09 245.684C1119.56 232.695 1059.64 142.266 960.352 150.731C923.217 153.897 889.755 167.979 855.253 183.097ZM565.312 329.908C595.671 320.491 722.177 234.981 714.465 232.928C630.864 210.666 671.773 194.699 619.431 228.819C574.904 257.844 571.03 265.123 514.473 292.344C512.704 293.195 511.382 294.114 513.824 295.48C526.479 302.558 542.209 321.596 565.312 329.908ZM613.945 342.258C725.757 351.699 757.726 307.624 805.293 288.31C808.844 286.868 805.556 286.019 804.574 285.508C715.726 239.341 784.285 250.795 613.945 342.258ZM515.046 157.858C515.046 157.858 577.116 157.62 616.601 171.313C620.572 172.69 616.85 174.281 681.099 128.379C690.568 121.614 640.943 114.87 613.204 116.848C575.63 119.526 544.606 136.746 515.046 157.858ZM883.464 229.546C883.057 227.645 881.483 227.299 880.319 226.565C865.579 217.266 849.515 210.031 836.309 198.35C833.61 195.963 837.405 194.94 777.027 236.723C772.171 240.084 772.597 237.782 821.889 270.071C827.204 273.552 882.462 230.36 883.464 229.546ZM476.116 267.632C452.697 255.321 462.666 202.173 462.415 200.066C440.832 205.893 387.543 250.89 406.946 298.637C408.402 302.219 402.901 307.304 476.116 267.632ZM493.675 257.973C494.109 263.338 589.242 192.893 590.193 191.892C584.808 189.285 499.221 175.645 494.963 192.227C484.973 231.134 492.144 239.044 493.675 257.973ZM793.818 174.537C779.461 163.58 760.477 156.311 743.591 147.163C740.605 145.546 744.881 144.01 680.464 188.207C676.091 191.208 680.425 190.76 696.216 197.377C748.457 219.267 723.715 224.895 793.818 174.537ZM522.636 336.825C493.672 317.819 493.632 303.967 486.58 307.533C443.442 329.345 437.898 326.404 444.82 329.459C481.643 345.708 533.616 344.03 522.636 336.825Z" fill="black"/>
</svg>
