<svg width="1198" height="371" viewBox="0 0 1198 371" fill="none" xmlns="http://www.w3.org/2000/svg">
<path d="M802.122 341.909C795.702 339.928 790.576 338.74 783.721 343.448C748.166 367.868 673.436 372.161 636.998 359.57C634.041 358.548 493.148 407.295 379.432 309.52C368.849 300.421 356.844 319.084 288.478 342.145C206.331 369.854 110.571 371.488 45.708 309.492C-106.653 163.864 143.416 -107.945 478.619 105.764C480.979 107.269 482.828 107.4 485.378 106.386C649.636 41.07 722.867 168.546 723.867 168.6C763.471 170.771 852.204 244.063 815.514 305.984C810.733 314.053 815.5 312.52 819.317 313.638C864.972 327.014 911.389 336.335 959.134 335.522C1063.12 333.752 1147.18 267.26 1165.82 198.131C1196.29 85.172 1049.41 4.95896 929.205 35.442C811.079 65.4 796.856 142.851 843.029 183.743C892.148 227.243 973.329 231.164 1022.39 207.628C1129.43 156.272 997.267 61.953 913.178 128.205C901.828 137.148 918.101 155.916 943.48 159.819C974.064 164.522 978.103 158.082 978.005 166.237C977.861 178.184 978.019 178.21 965.792 179.095C878.976 185.382 868.761 131.209 900.529 104.943C932.139 78.808 1004.73 66.598 1052.68 97.872C1104.95 131.966 1090.05 183.481 1066.6 208.977C1000.56 280.785 872.994 267.12 808.47 190.989C780.101 157.517 771.095 57.993 897.341 13.855C1003.79 -23.361 1148.06 17.034 1190.65 127.332C1222.38 209.508 1153.88 366.999 924.625 361.05C903.914 360.511 885.074 367.507 802.122 341.909ZM435.896 130.036C429.016 127.074 422.461 126.77 416.909 123.457C59.104 -90.033 -105.937 301.15 161.367 333.865C244.665 344.06 343.076 290.585 344.093 289.781C344.093 289.781 321.933 279.107 274.722 251.046C272.481 249.714 270.908 249.655 268.485 250.85C157.696 305.467 74.481 240.012 115.899 176.204C150.569 122.791 253.417 90.767 376.857 157.862C385.044 162.312 379.734 155.496 435.896 130.036ZM342.638 182.731C311.226 169.376 278.47 155.025 242.025 151.097C191.898 145.694 122.037 171.007 130.609 214.723C137.303 248.86 197.963 251.547 230.402 239.19C233.875 237.867 237.526 237.009 242.221 235.597C169.458 207.386 172.524 232.55 164.409 211.305C160.539 201.171 196.78 186.502 269.688 211.272C296.825 220.492 300.495 200.837 342.638 182.731ZM686.8 293.758C673.081 286.518 658.498 281.239 645.308 272.806C548.583 210.968 552.218 206.79 544.461 209.759C544.459 209.76 481.768 234.218 481.768 234.218C482.833 235.335 582.479 307.863 623.633 326.434C634.178 331.194 646.327 328.687 686.8 293.758ZM584.4 341.967C569.174 334.174 548.848 324.157 529.146 311.488C451.961 261.854 453.72 254.357 445.799 258.524C388.342 288.746 388.546 286.422 394.451 288.915C437.939 307.265 482.372 354.779 584.4 341.967ZM683.679 158.538C683.819 157.969 683.959 157.399 684.1 156.83C669.965 151.511 610.49 94.564 517.471 124.604C513.536 125.875 514.439 126.514 516.913 128.274C619.247 201.098 536.444 158.538 683.679 158.538ZM703.645 192.771C699.603 176.473 626.902 187.755 610.35 190.772C604.97 191.752 601.132 187.908 701.175 258.516C702.626 259.541 704.449 261.586 704.819 257.706C706.826 236.631 713.42 232.18 703.645 192.771ZM423.623 239.274C423.279 236.873 405.842 227.072 370.51 201.235C362.547 195.412 367.091 196.734 317.724 226.762C312.365 230.021 307.945 224.466 370.936 270.399C375.042 273.393 422.622 239.995 423.623 239.274ZM722.438 267.201C723.273 268.857 759.739 288.088 788.273 301.339C792.74 303.413 799.454 280.431 793.45 261.697C779.192 217.213 737.159 199.814 736.136 200.284C735.134 200.745 745.964 258.474 722.438 267.201ZM456.542 146.467C455.542 146.875 420.366 163.594 407.339 172.201C400.529 176.7 409.466 173.943 452.064 208.401C463.444 217.606 457.845 215.999 516.636 191.733C521.8 189.601 526.001 193.921 459.442 148.101C458.516 147.464 457.477 146.989 456.542 146.467ZM753.958 326.189C707.763 307.819 710.054 304.591 707.386 307.748C691.603 326.422 672.995 339.525 672.995 339.525C673.897 347.233 772.027 333.374 753.958 326.189Z" fill="black"/>
</svg>
