{
  "accessors": [
    {
      "bufferView": 1,
      "componentType": 5126,
      "count": 27431,
      "max": [
        1.0287100076675415,
        1.2227599620819092,
        3.8053500652313232
      ],
      "min": [
        -1.1601999998092651,
        -1.1956700086593628,
        -1.0
      ],
      "type": "VEC3"
    },
    {
      "bufferView": 1,
      "byteOffset": 329172,
      "componentType": 5126,
      "count": 27431,
      "max": [
        1.0,
        1.0,
        1.0
      ],
      "min": [
        -1.0,
        -1.0,
        -1.0
      ],
      "type": "VEC3"
    },
    {
      "bufferView": 0,
      "componentType": 5125,
      "count": 107835,
      "type": "SCALAR"
    },
    {
      "bufferView": 1,
      "byteOffset": 658344,
      "componentType": 5126,
      "count": 20087,
      "max": [
        1.003159999847412,
        0.933430016040802,
        0.8134400248527527
      ],
      "min": [
        0.9950900077819824,
        -0.9562100172042847,
        -0.9402599930763245
      ],
      "type": "VEC3"
    },
    {
      "bufferView": 1,
      "byteOffset": 899388,
      "componentType": 5126,
      "count": 20087,
      "max": [
        1.0,
        0.9999997019767761,
        1.0
      ],
      "min": [
        -1.0,
        -1.0,
        -1.0
      ],
      "type": "VEC3"
    },
    {
      "bufferView": 0,
      "byteOffset": 431340,
      "componentType": 5125,
      "count": 72819,
      "type": "SCALAR"
    },
    {
      "bufferView": 1,
      "byteOffset": 1140432,
      "componentType": 5126,
      "count": 546,
      "max": [
        0.004660000093281269,
        0.0012199999764561653,
        0.00430000014603138
      ],
      "min": [
        -0.001509999972768128,
        -0.0012199999764561653,
        -0.00430000014603138
      ],
      "type": "VEC3"
    },
    {
      "bufferView": 1,
      "byteOffset": 1146984,
      "componentType": 5126,
      "count": 546,
      "max": [
        1.0,
        1.0,
        1.0
      ],
      "min": [
        -1.0,
        -1.0,
        -1.0
      ],
      "type": "VEC3"
    },
    {
      "bufferView": 0,
      "byteOffset": 722616,
      "componentType": 5125,
      "count": 3252,
      "type": "SCALAR"
    }
  ],
  "asset": {
    "extras": {
      "author": "jorgebaby (https://sketchfab.com/jorgebaby160)",
      "license": "CC-BY-NC-ND-4.0 (http://creativecommons.org/licenses/by-nc-nd/4.0/)",
      "source": "https://sketchfab.com/3d-models/commandos-power-plant-8d3226bbda154538af484b4de9ddf0ef",
      "title": "Commandos Power Plant"
    },
    "generator": "Sketchfab-12.65.0",
    "version": "2.0"
  },
  "bufferViews": [
    {
      "buffer": 0,
      "byteLength": 735624,
      "name": "floatBufferViews",
      "target": 34963
    },
    {
      "buffer": 0,
      "byteLength": 1153536,
      "byteOffset": 735624,
      "byteStride": 12,
      "name": "floatBufferViews",
      "target": 34962
    }
  ],
  "buffers": [
    {
      "byteLength": 1889160,
      "uri": "scene.bin"
    }
  ],
  "materials": [
    {
      "doubleSided": true,
      "name": "Material.002",
      "pbrMetallicRoughness": {
        "baseColorFactor": [
          0.8000000119,
          0.8000000119,
          0.8000000119,
          1.0
        ],
        "metallicFactor": 0.0,
        "roughnessFactor": 0.6
      }
    },
    {
      "doubleSided": true,
      "name": "Material.003",
      "pbrMetallicRoughness": {
        "baseColorFactor": [
          0.8000000119,
          0.8000000119,
          0.8000000119,
          1.0
        ],
        "metallicFactor": 0.0,
        "roughnessFactor": 0.6
      }
    },
    {
      "doubleSided": true,
      "name": "Material.004",
      "pbrMetallicRoughness": {
        "baseColorFactor": [
          0.0,
          0.0,
          0.0,
          1.0
        ],
        "metallicFactor": 0.0,
        "roughnessFactor": 0.6
      }
    }
  ],
  "meshes": [
    {
      "name": "Commandos Power plant_0",
      "primitives": [
        {
          "attributes": {
            "NORMAL": 1,
            "POSITION": 0
          },
          "indices": 2,
          "material": 1,
          "mode": 4
        }
      ]
    },
    {
      "name": "Commandos Power plant_1",
      "primitives": [
        {
          "attributes": {
            "NORMAL": 4,
            "POSITION": 3
          },
          "indices": 5,
          "material": 2,
          "mode": 4
        }
      ]
    },
    {
      "name": "Commandos Power plant.002_0",
      "primitives": [
        {
          "attributes": {
            "NORMAL": 7,
            "POSITION": 6
          },
          "indices": 8,
          "material": 0,
          "mode": 4
        }
      ]
    }
  ],
  "nodes": [
    {
      "children": [
        1
      ],
      "matrix": [
        1.0,
        0.0,
        0.0,
        0.0,
        0.0,
        2.220446049250313e-16,
        -1.0,
        0.0,
        0.0,
        1.0,
        2.220446049250313e-16,
        0.0,
        0.0,
        0.0,
        0.0,
        1.0
      ],
      "name": "Sketchfab_model"
    },
    {
      "children": [
        2,
        4,
        7
      ],
      "name": "Root"
    },
    {
      "children": [
        3
      ],
      "matrix": [
        -0.29086000000000006,
        0.9551700000000001,
        -0.05519000000000001,
        0.0,
        -0.7711,
        -0.19988000000000003,
        0.6045200000000001,
        0.0,
        0.5663900000000001,
        0.21839000000000003,
        0.7946700000000001,
        0.0,
        4.076250000000001,
        1.00545,
        5.903860000000001,
        1.0
      ],
      "name": "Lamp"
    },
    {
      "name": "Lamp"
    },
    {
      "children": [
        5,
        6
      ],
      "matrix": [
        2.40563,
        0.0,
        0.0,
        0.0,
        0.0,
        3.38016,
        0.0,
        0.0,
        0.0,
        0.0,
        0.95653,
        0.0,
        -0.025860000000000005,
        -0.035010000000000006,
        1.1674,
        1.0
      ],
      "name": "Commandos Power plant"
    },
    {
      "mesh": 0,
      "name": "Commandos Power plant_0"
    },
    {
      "mesh": 1,
      "name": "Commandos Power plant_1"
    },
    {
      "children": [
        8
      ],
      "matrix": [
        2.40563,
        0.0,
        0.0,
        0.0,
        0.0,
        3.38016,
        0.0,
        0.0,
        0.0,
        0.0,
        0.95653,
        0.0,
        -0.025860000000000005,
        -0.035010000000000006,
        1.1674,
        1.0
      ],
      "name": "Commandos Power plant.002"
    },
    {
      "mesh": 2,
      "name": "Commandos Power plant.002_0"
    }
  ],
  "scene": 0,
  "scenes": [
    {
      "name": "Sketchfab_Scene",
      "nodes": [
        0
      ]
    }
  ]
}
